<?xml version="1.0" standalone="no"?>
<!DOCTYPE svg PUBLIC "-//W3C//DTD SVG 20010904//EN"
 "http://www.w3.org/TR/2001/REC-SVG-20010904/DTD/svg10.dtd">
<svg version="1.0" xmlns="http://www.w3.org/2000/svg"
 width="150.000000pt" height="148.000000pt" viewBox="0 0 150.000000 148.000000"
 preserveAspectRatio="xMidYMid meet">

<g transform="translate(0.000000,148.000000) scale(0.100000,-0.100000)"
fill="#000000" stroke="none">
<path d="M858 1435 c-4 -4 -45 -7 -92 -6 -58 1 -97 -3 -123 -14 -35 -15 -45
-15 -122 1 -168 33 -281 -8 -332 -120 -62 -137 33 -565 147 -666 44 -38 75
-46 112 -28 25 13 32 13 63 -4 27 -15 48 -18 102 -15 l67 4 0 -62 c0 -83 23
-154 60 -190 27 -26 39 -30 88 -30 98 1 167 53 192 144 5 20 13 68 17 106 l8
70 45 3 c96 6 180 58 180 111 0 40 -18 51 -81 51 l-57 0 39 79 c70 142 108
297 95 386 -6 38 -17 56 -52 92 -68 67 -119 86 -244 91 -58 2 -108 1 -112 -3z
m209 -30 c61 -18 127 -64 153 -108 47 -77 4 -281 -97 -460 -18 -33 -33 -64
-33 -69 0 -7 24 -8 68 -4 56 6 71 4 82 -9 32 -38 -101 -113 -184 -103 l-33 4
-12 -103 c-16 -125 -40 -180 -93 -206 -54 -27 -120 -27 -155 -1 -46 34 -58 69
-61 186 l-4 108 -28 -15 c-54 -28 -161 -14 -175 23 -8 21 9 37 57 51 55 17 74
31 56 42 -30 19 -56 8 -97 -41 -75 -88 -110 -98 -163 -45 -79 79 -166 380
-155 536 10 144 82 209 231 209 45 0 103 -7 129 -15 44 -13 52 -13 80 2 24 12
61 17 144 17 61 1 115 4 119 9 13 12 118 8 171 -8z"/>
<path d="M900 1372 c0 -6 9 -13 20 -17 32 -10 109 -94 137 -148 24 -49 25 -58
24 -204 -1 -84 0 -153 3 -153 8 0 55 106 83 189 15 43 28 108 31 151 4 75 4
76 -29 109 -19 18 -54 43 -79 54 -50 23 -190 37 -190 19z"/>
<path d="M705 1366 c-5 -3 -22 -7 -37 -10 -62 -14 -125 -101 -142 -197 l-6
-36 52 14 c100 27 137 -9 145 -139 5 -73 2 -90 -21 -147 -30 -74 -31 -81 -12
-81 8 0 24 -12 35 -26 19 -24 21 -40 21 -161 0 -155 11 -194 58 -211 39 -14
103 2 132 33 21 23 40 112 55 267 4 45 12 71 25 83 17 15 15 20 -36 119 -62
118 -77 179 -58 224 15 37 41 52 89 52 l35 0 -24 48 c-29 57 -92 117 -150 142
-39 18 -140 33 -161 26z"/>
<path d="M311 1338 c-67 -46 -76 -67 -76 -186 1 -90 6 -125 33 -222 54 -188
113 -288 155 -263 8 4 36 31 61 60 l46 51 -26 39 c-25 38 -26 39 -21 203 4
175 12 215 53 275 18 27 22 41 14 49 -5 5 -54 12 -108 14 -89 4 -100 2 -131
-20z"/>
<path d="M558 1093 l-38 -15 -1 -87 c-1 -107 1 -131 13 -154 10 -19 66 -57 84
-57 7 0 23 32 38 71 26 70 33 152 17 209 -6 22 -8 23 -14 7 -10 -26 -52 -19
-52 8 0 16 6 20 30 18 22 -2 26 0 15 7 -21 14 -49 11 -92 -7z"/>
<path d="M955 1086 c-15 -22 -14 -29 5 -87 20 -60 65 -149 75 -149 3 0 5 59 5
130 l0 130 -35 0 c-25 0 -39 -6 -50 -24z m65 5 c0 -5 -7 -14 -15 -21 -12 -10
-18 -10 -30 0 -8 7 -12 16 -9 21 7 12 54 12 54 0z"/>
<path d="M1043 733 c-7 -3 -13 -14 -13 -25 0 -19 4 -20 54 -15 30 3 67 12 83
20 l28 16 -42 -6 c-23 -3 -54 -1 -70 4 -15 6 -34 8 -40 6z"/>
<path d="M636 701 c-16 -16 -45 -34 -65 -39 -35 -10 -35 -10 20 -11 48 -1 60
3 83 26 15 14 25 31 23 37 -7 22 -33 16 -61 -13z"/>
<path d="M40 190 c0 -60 4 -100 10 -100 6 0 10 18 10 40 0 35 3 40 24 40 31 0
76 36 76 61 0 32 -36 59 -80 59 l-40 0 0 -100z m81 71 c21 -16 22 -22 11 -45
-9 -20 -19 -26 -42 -26 -28 0 -30 2 -30 38 0 57 19 67 61 33z"/>
<path d="M1006 274 c-32 -32 -21 -58 42 -94 37 -22 42 -54 12 -70 -11 -6 -31
-8 -45 -4 -15 4 -25 2 -25 -5 0 -14 65 -14 91 -1 12 7 19 21 19 39 0 29 -14
46 -53 66 -11 5 -25 18 -31 28 -9 15 -7 21 9 33 11 8 30 12 43 9 12 -3 22 -1
22 5 0 16 -67 12 -84 -6z"/>
<path d="M1177 279 c-46 -27 -57 -128 -18 -163 23 -20 144 -57 154 -47 5 5 -6
11 -24 15 -33 6 -33 6 -11 22 32 22 46 85 28 128 -8 19 -23 39 -34 45 -26 14
-71 14 -95 0z m88 -24 c35 -34 35 -96 0 -130 -30 -31 -52 -31 -82 -3 -35 32
-33 109 3 137 34 27 50 26 79 -4z"/>
<path d="M1360 190 l0 -100 50 0 c28 0 50 5 50 10 0 6 -18 10 -40 10 l-40 0 0
90 c0 53 -4 90 -10 90 -6 0 -10 -40 -10 -100z"/>
<path d="M480 251 c0 -11 -6 -22 -12 -24 -10 -4 -10 -6 0 -6 8 -1 12 -19 12
-54 0 -57 12 -77 44 -77 20 0 20 1 -2 16 -32 22 -32 101 1 114 l22 9 -22 0
c-16 1 -23 7 -23 21 0 11 -4 20 -10 20 -5 0 -10 -9 -10 -19z"/>
<path d="M196 208 c-35 -50 -8 -118 47 -118 38 0 50 7 66 38 16 29 5 79 -19
92 -33 18 -78 12 -94 -12z m93 -19 c12 -22 12 -29 0 -54 -17 -36 -44 -43 -70
-19 -24 21 -25 61 -2 86 22 25 54 19 72 -13z"/>
<path d="M362 218 c-20 -20 -14 -38 23 -59 19 -12 35 -24 35 -29 0 -16 -30
-32 -50 -27 -11 3 -20 1 -20 -4 0 -15 67 -10 80 6 17 20 5 47 -31 68 -36 20
-34 42 4 42 15 -1 27 3 27 7 0 13 -55 9 -68 -4z"/>
<path d="M586 214 c-22 -22 -21 -87 2 -107 22 -20 53 -22 70 -5 20 20 27 -1
11 -30 -12 -22 -22 -27 -52 -26 -20 1 -37 -3 -37 -7 0 -14 75 -10 96 5 16 12
20 29 23 100 2 58 -1 86 -8 86 -6 0 -11 -5 -11 -12 0 -9 -3 -9 -12 0 -17 17
-64 15 -82 -4z m76 -11 c24 -21 23 -58 -3 -84 -18 -18 -23 -19 -42 -6 -28 18
-34 69 -12 91 21 20 34 20 57 -1z"/>
<path d="M740 160 c0 -56 3 -70 15 -70 12 0 15 13 15 56 0 47 3 57 20 61 11 3
20 9 20 14 0 14 -28 11 -34 -3 -5 -10 -7 -10 -12 0 -14 30 -24 7 -24 -58z"/>
<path d="M851 216 c-7 -8 -15 -30 -18 -49 -7 -46 22 -77 72 -77 19 0 35 4 35
9 0 4 -11 6 -25 3 -27 -5 -65 21 -65 45 0 9 16 13 56 13 53 0 55 1 48 23 -3
12 -11 28 -16 35 -14 16 -73 15 -87 -2z m78 -15 c14 -25 5 -31 -41 -31 -41 0
-43 2 -28 31 14 24 56 25 69 0z"/>
</g>
</svg>
